<?xml version="1.0" encoding="UTF-8" standalone="no"?><!DOCTYPE svg PUBLIC "-//W3C//DTD SVG 1.1//EN" "http://www.w3.org/Graphics/SVG/1.1/DTD/svg11.dtd"><svg width="100%" height="100%" viewBox="0 0 2311 685" version="1.1" xmlns="http://www.w3.org/2000/svg" xmlns:xlink="http://www.w3.org/1999/xlink" xml:space="preserve" xmlns:serif="http://www.serif.com/" style="fill-rule:evenodd;clip-rule:evenodd;stroke-linejoin:round;stroke-miterlimit:2;"><path d="M2.1,547.083l-2.1,-410.575l394.824,-136.508l216.313,68.254l0,554.434l-216.313,61.954l-381.173,-128.108l381.173,35.702l0,-476.729l-257.266,54.603l0,325.52l-135.458,51.453Z" style="fill:#ea3c00;"/><g><path d="M1034.45,135.735c60.53,-4.041 112.231,12.842 150.124,51.36c37.244,37.858 61.22,96.788 59.048,157.813c-2.123,59.664 -19.436,117.762 -59.048,155.9c-36.981,35.605 -94.385,53.273 -150.124,53.273c-56.647,-0 -111.721,-16.648 -149.402,-53.273c-39.114,-38.017 -59.771,-97.101 -59.771,-155.9c-0,-54.309 25.783,-115.573 59.771,-152.773c38.26,-41.875 88.388,-52.326 149.402,-56.4Zm5.717,41.292c-44.457,-0.455 -89.095,12.495 -116.874,45.852c-24.677,29.632 -42.556,80.639 -42.556,123.453c-0,46.352 16.825,94.491 43.396,122.358c26.572,27.868 78.248,45.718 116.034,44.847c37.785,-0.871 86.066,-21.435 110.677,-50.072c24.612,-28.638 37.132,-81.655 36.991,-121.752c-0.14,-40.098 -10.79,-89.326 -37.831,-118.834c-27.512,-30.022 -64.209,-45.384 -109.837,-45.852Z" style="fill:#ea3c00;"/><path d="M1326.03,255.751c0.388,-24.304 1.07,-44.453 2.16,-57.246c2.048,-24.03 18.96,-51.328 33.185,-65.777c12.989,-13.193 34.939,-20.691 52.164,-20.916c17.336,-0.226 49.059,1.982 49.059,1.982l0,43.299c0,0 -18.843,-6.753 -31.829,-6.337c-11.576,0.372 -28.487,3.554 -37.448,11.843c-8.96,8.288 -16.904,21.887 -17.416,35.906c-0.449,12.297 -0.727,32.54 -0.882,57.246l122.39,-0c0.391,-23.929 1.07,-43.761 2.147,-56.406c2.048,-24.03 18.96,-51.328 33.185,-65.777c12.989,-13.193 34.939,-20.691 52.165,-20.916c17.336,-0.226 49.059,1.982 49.059,1.982l-0,43.299c-0,0 -18.843,-6.753 -31.829,-6.337c-11.577,0.372 -28.488,3.554 -37.449,11.843c-8.96,8.288 -16.904,21.887 -17.416,35.906c-0.444,12.158 -0.72,32.081 -0.876,56.406l74.053,-0l-0,41.162l-74.206,0c-0.166,105.733 1.029,249.205 1.029,249.205l-47.715,0c0,0 -2.991,-143.01 -2.542,-249.205l-122.144,0c-0.158,105.651 1.031,248.365 1.031,248.365l-47.715,0c0,0 -2.976,-142.258 -2.546,-248.365l-52.973,0l-0,-41.162l53.359,-0Z" style="fill:#ea3c00;"/><path d="M1669.95,255.492l50.403,0.673l0,289.953l-50.403,0l0,-290.626Z" style="fill:#ea3c00;"/><ellipse cx="1694.15" cy="152.67" rx="32.258" ry="30.242" style="fill:#ea3c00;"/><path d="M2005.47,309.805l-0,-47.043c-0,-0 -48.835,-12.108 -71.909,-12.108c-22.309,-0 -63.497,4.021 -88.026,16.861c-27.409,14.346 -50.212,44.619 -61.167,66.819c-10.954,22.199 -18.605,57.118 -13.978,85.685c4.816,29.738 7.681,56.803 25.134,77.688c17.563,21.017 39.494,39.016 62.5,48.411c23.006,9.396 50.963,14.889 91.666,7.963c19.527,-3.323 55.78,-20.487 55.78,-20.487l-0,-40.322c-0,-0 -27.371,11.66 -42.398,15.704c-19.613,5.277 -59.921,6.314 -80.543,0c-18.31,-5.606 -32.726,-22.425 -43.188,-37.882c-10.118,-14.95 -23.722,-44.398 -17.473,-89.784c5.017,-36.442 31.685,-60.61 50.301,-76c16.641,-13.757 51.105,-13.888 72.682,-13.113c22.447,0.807 60.619,17.608 60.619,17.608Z" style="fill:#ea3c00;"/><path d="M2290.81,483.631l0,43.146c0,0 -50.919,29.142 -103.326,28.282c-32.476,-0.533 -83.262,-11.692 -106.579,-34.303c-24.641,-23.895 -40.84,-56.01 -41.27,-109.066c-0.688,-84.88 26.661,-110.184 54.603,-133.568c24.925,-20.857 61.034,-30.975 93.246,-27.468c59.718,6.501 82.045,24.15 102.486,50.99c20.441,26.839 20.161,110.046 20.161,110.046l-221.398,0c-0,0 1.679,48.737 28.218,76.02c32.469,33.381 67.398,27.318 96.776,26.122c28.021,-1.14 77.083,-30.201 77.083,-30.201Zm-199.049,-108.241l171.297,-0c-0,-0 -5.625,-36.963 -15.368,-52.144c-15.521,-24.186 -41.198,-33.375 -63.722,-33.788c-21.981,-0.403 -53.479,10.52 -68.119,29.659c-23.308,30.473 -24.088,56.273 -24.088,56.273Z" style="fill:#ea3c00;"/></g></svg>